<?xml version="1.0" standalone="no"?>
<!DOCTYPE svg PUBLIC "-//W3C//DTD SVG 20010904//EN"
 "http://www.w3.org/TR/2001/REC-SVG-20010904/DTD/svg10.dtd">
<svg version="1.0" xmlns="http://www.w3.org/2000/svg"
 width="1084.000000pt" height="1084.000000pt" viewBox="0 0 1084.000000 1084.000000"
 preserveAspectRatio="xMidYMid meet">
<metadata>
Created by potrace 1.11, written by Peter Selinger 2001-2013
</metadata>
<g transform="translate(0.000000,1084.000000) scale(0.100000,-0.100000)"
fill="#000000" stroke="none">
<path d="M2 5423 l3 -5418 5413 0 c2976 0 5412 1 5412 3 0 2 -6 9 -12 16 -7 7
-152 156 -323 331 -170 174 -357 366 -415 425 -58 60 -240 246 -405 415 -165
168 -357 365 -426 436 l-127 129 -3705 0 -3705 0 0 3664 0 3664 3707 0 3706 0
179 184 c188 193 358 367 911 932 295 302 385 395 583 599 l36 37 -5417 0
-5417 0 2 -5417z"/>
<path d="M5715 8313 c-132 -74 -287 -161 -345 -192 -58 -32 -122 -68 -142 -79
-21 -12 -68 -38 -105 -58 -37 -21 -104 -57 -148 -82 -44 -25 -105 -59 -135
-75 -30 -16 -68 -38 -85 -47 -16 -10 -55 -31 -85 -48 -48 -26 -795 -440 -920
-509 -25 -14 -79 -44 -120 -66 -41 -22 -79 -43 -85 -47 -5 -4 -37 -22 -70 -40
-33 -18 -99 -55 -147 -82 l-88 -49 0 -1514 0 -1514 53 -29 c127 -73 183 -104
200 -109 9 -3 17 -9 17 -14 0 -5 5 -9 10 -9 6 0 65 -31 133 -68 67 -38 147
-82 177 -99 30 -17 75 -41 100 -55 25 -14 68 -38 95 -53 28 -15 88 -49 135
-75 47 -26 105 -59 130 -72 80 -45 423 -235 480 -266 30 -16 111 -61 180 -99
105 -59 561 -311 750 -416 30 -17 102 -57 160 -89 57 -32 110 -58 116 -58 6 0
22 8 35 18 13 10 38 25 54 33 44 22 177 95 274 151 46 26 85 48 87 48 2 0 117
64 256 141 139 78 282 157 318 176 36 20 79 44 95 53 17 10 57 32 90 50 33 18
116 64 185 103 69 38 154 85 190 105 36 19 115 63 175 97 118 66 122 69 410
227 105 58 210 116 235 130 25 14 104 58 175 97 72 40 134 76 139 81 12 12 12
3018 0 3030 -8 7 -304 174 -489 275 -67 36 -124 68 -235 130 -78 43 -231 128
-335 185 -58 32 -77 43 -175 98 -25 14 -70 40 -102 56 -87 48 -112 61 -453
251 -176 98 -345 191 -375 208 -30 16 -89 48 -130 72 -71 40 -124 69 -250 138
-30 16 -81 45 -113 63 -32 19 -63 34 -70 33 -7 -1 -120 -62 -252 -136z"/>
</g>
</svg>
